<mxfile host="app.diagrams.net" modified="2022-10-17T10:11:06.183Z" agent="5.0 (Macintosh; Intel Mac OS X 10_15_7) AppleWebKit/537.36 (KHTML, like Gecko) Chrome/105.0.0.0 Safari/537.36" etag="XGcQphCNjpGEMpJWl8jX" version="20.2.3" type="github">
  <diagram id="Pb9lv38IHQtQsVFljM-k" name="Page-1">
    <mxGraphModel dx="1298" dy="698" grid="1" gridSize="10" guides="1" tooltips="1" connect="1" arrows="1" fold="1" page="1" pageScale="1" pageWidth="850" pageHeight="1100" math="0" shadow="0">
      <root>
        <mxCell id="0" />
        <mxCell id="1" parent="0" />
        <mxCell id="NNi6yRZVvPSZJpoD0l9T-1" value="ServiceConfig" style="shape=umlLifeline;perimeter=lifelinePerimeter;whiteSpace=wrap;html=1;container=1;collapsible=0;recursiveResize=0;outlineConnect=0;" vertex="1" parent="1">
          <mxGeometry x="60" y="70" width="100" height="750" as="geometry" />
        </mxCell>
        <mxCell id="NNi6yRZVvPSZJpoD0l9T-2" value="" style="html=1;points=[];perimeter=orthogonalPerimeter;" vertex="1" parent="NNi6yRZVvPSZJpoD0l9T-1">
          <mxGeometry x="45" y="100" width="10" height="610" as="geometry" />
        </mxCell>
        <mxCell id="NNi6yRZVvPSZJpoD0l9T-3" value="export" style="edgeStyle=orthogonalEdgeStyle;html=1;align=left;spacingLeft=2;endArrow=block;rounded=0;entryX=1;entryY=0;" edge="1" target="NNi6yRZVvPSZJpoD0l9T-2" parent="NNi6yRZVvPSZJpoD0l9T-1">
          <mxGeometry relative="1" as="geometry">
            <mxPoint x="50" y="80" as="sourcePoint" />
            <Array as="points">
              <mxPoint x="80" y="80" />
            </Array>
          </mxGeometry>
        </mxCell>
        <mxCell id="NNi6yRZVvPSZJpoD0l9T-4" value="" style="html=1;points=[];perimeter=orthogonalPerimeter;" vertex="1" parent="NNi6yRZVvPSZJpoD0l9T-1">
          <mxGeometry x="50" y="150" width="10" height="540" as="geometry" />
        </mxCell>
        <mxCell id="NNi6yRZVvPSZJpoD0l9T-5" value="&lt;pre style=&quot;color: rgb(8, 8, 8); font-family: &amp;quot;JetBrains Mono&amp;quot;, monospace; font-size: 9.8pt;&quot;&gt;doExport&lt;/pre&gt;" style="edgeStyle=orthogonalEdgeStyle;html=1;align=left;spacingLeft=2;endArrow=block;rounded=0;entryX=1;entryY=0;" edge="1" target="NNi6yRZVvPSZJpoD0l9T-4" parent="NNi6yRZVvPSZJpoD0l9T-1">
          <mxGeometry relative="1" as="geometry">
            <mxPoint x="55" y="130" as="sourcePoint" />
            <Array as="points">
              <mxPoint x="85" y="130" />
            </Array>
          </mxGeometry>
        </mxCell>
        <mxCell id="NNi6yRZVvPSZJpoD0l9T-6" value="" style="html=1;points=[];perimeter=orthogonalPerimeter;" vertex="1" parent="NNi6yRZVvPSZJpoD0l9T-1">
          <mxGeometry x="55" y="210" width="10" height="460" as="geometry" />
        </mxCell>
        <mxCell id="NNi6yRZVvPSZJpoD0l9T-7" value="&lt;pre style=&quot;color: rgb(8, 8, 8); font-family: &amp;quot;JetBrains Mono&amp;quot;, monospace; font-size: 9.8pt;&quot;&gt;doExportUrls&lt;/pre&gt;" style="edgeStyle=orthogonalEdgeStyle;html=1;align=left;spacingLeft=2;endArrow=block;rounded=0;entryX=1;entryY=0;" edge="1" target="NNi6yRZVvPSZJpoD0l9T-6" parent="NNi6yRZVvPSZJpoD0l9T-1">
          <mxGeometry relative="1" as="geometry">
            <mxPoint x="60" y="190" as="sourcePoint" />
            <Array as="points">
              <mxPoint x="90" y="190" />
            </Array>
          </mxGeometry>
        </mxCell>
        <mxCell id="NNi6yRZVvPSZJpoD0l9T-8" value="" style="html=1;points=[];perimeter=orthogonalPerimeter;" vertex="1" parent="NNi6yRZVvPSZJpoD0l9T-1">
          <mxGeometry x="60" y="280" width="10" height="40" as="geometry" />
        </mxCell>
        <mxCell id="NNi6yRZVvPSZJpoD0l9T-9" value="&lt;pre style=&quot;color: rgb(8, 8, 8); font-family: &amp;quot;JetBrains Mono&amp;quot;, monospace; font-size: 9.8pt;&quot;&gt;&lt;pre style=&quot;font-family: &amp;quot;JetBrains Mono&amp;quot;, monospace; font-size: 9.8pt;&quot;&gt;loadRegistries&lt;/pre&gt;&lt;/pre&gt;" style="edgeStyle=orthogonalEdgeStyle;html=1;align=left;spacingLeft=2;endArrow=block;rounded=0;entryX=1;entryY=0;" edge="1" target="NNi6yRZVvPSZJpoD0l9T-8" parent="NNi6yRZVvPSZJpoD0l9T-1">
          <mxGeometry x="0.0667" y="5" relative="1" as="geometry">
            <mxPoint x="65" y="260" as="sourcePoint" />
            <Array as="points">
              <mxPoint x="95" y="260" />
            </Array>
            <mxPoint as="offset" />
          </mxGeometry>
        </mxCell>
        <mxCell id="NNi6yRZVvPSZJpoD0l9T-10" value="" style="html=1;points=[];perimeter=orthogonalPerimeter;" vertex="1" parent="NNi6yRZVvPSZJpoD0l9T-1">
          <mxGeometry x="60" y="380" width="10" height="270" as="geometry" />
        </mxCell>
        <mxCell id="NNi6yRZVvPSZJpoD0l9T-11" value="&lt;pre style=&quot;color: rgb(8, 8, 8); font-family: &amp;quot;JetBrains Mono&amp;quot;, monospace; font-size: 9.8pt;&quot;&gt;doExportUrlsFor1Protocol&lt;/pre&gt;" style="edgeStyle=orthogonalEdgeStyle;html=1;align=left;spacingLeft=2;endArrow=block;rounded=0;entryX=1;entryY=0;" edge="1" target="NNi6yRZVvPSZJpoD0l9T-10" parent="NNi6yRZVvPSZJpoD0l9T-1">
          <mxGeometry relative="1" as="geometry">
            <mxPoint x="65" y="360" as="sourcePoint" />
            <Array as="points">
              <mxPoint x="95" y="360" />
            </Array>
          </mxGeometry>
        </mxCell>
        <mxCell id="NNi6yRZVvPSZJpoD0l9T-16" value="&lt;pre style=&quot;color: rgb(8, 8, 8); font-family: &amp;quot;JetBrains Mono&amp;quot;, monospace; font-size: 9.8pt;&quot;&gt;export&lt;/pre&gt;" style="html=1;verticalAlign=bottom;endArrow=block;rounded=0;" edge="1" parent="NNi6yRZVvPSZJpoD0l9T-1" target="NNi6yRZVvPSZJpoD0l9T-14">
          <mxGeometry width="80" relative="1" as="geometry">
            <mxPoint x="70" y="430" as="sourcePoint" />
            <mxPoint x="150" y="430" as="targetPoint" />
          </mxGeometry>
        </mxCell>
        <mxCell id="NNi6yRZVvPSZJpoD0l9T-12" value="获取所有注册中心信息" style="shape=note;size=20;whiteSpace=wrap;html=1;" vertex="1" parent="1">
          <mxGeometry x="200" y="290" width="160" height="40" as="geometry" />
        </mxCell>
        <mxCell id="NNi6yRZVvPSZJpoD0l9T-13" value="" style="endArrow=none;dashed=1;html=1;rounded=0;exitX=0.5;exitY=0.013;exitDx=0;exitDy=0;exitPerimeter=0;entryX=0;entryY=0.5;entryDx=0;entryDy=0;entryPerimeter=0;" edge="1" parent="1" source="NNi6yRZVvPSZJpoD0l9T-8" target="NNi6yRZVvPSZJpoD0l9T-12">
          <mxGeometry width="50" height="50" relative="1" as="geometry">
            <mxPoint x="210" y="410" as="sourcePoint" />
            <mxPoint x="260" y="360" as="targetPoint" />
          </mxGeometry>
        </mxCell>
        <mxCell id="NNi6yRZVvPSZJpoD0l9T-14" value="Protocol$Adaptive" style="shape=umlLifeline;perimeter=lifelinePerimeter;whiteSpace=wrap;html=1;container=1;collapsible=0;recursiveResize=0;outlineConnect=0;" vertex="1" parent="1">
          <mxGeometry x="375" y="70" width="100" height="760" as="geometry" />
        </mxCell>
        <mxCell id="NNi6yRZVvPSZJpoD0l9T-15" value="" style="html=1;points=[];perimeter=orthogonalPerimeter;" vertex="1" parent="NNi6yRZVvPSZJpoD0l9T-14">
          <mxGeometry x="45" y="400" width="10" height="170" as="geometry" />
        </mxCell>
        <mxCell id="NNi6yRZVvPSZJpoD0l9T-18" value="&lt;pre style=&quot;color: rgb(8, 8, 8); font-family: &amp;quot;JetBrains Mono&amp;quot;, monospace; font-size: 9.8pt;&quot;&gt;export&lt;/pre&gt;" style="html=1;verticalAlign=bottom;endArrow=block;rounded=0;entryX=0.1;entryY=0.075;entryDx=0;entryDy=0;entryPerimeter=0;" edge="1" parent="NNi6yRZVvPSZJpoD0l9T-14" target="NNi6yRZVvPSZJpoD0l9T-19">
          <mxGeometry width="80" relative="1" as="geometry">
            <mxPoint x="55" y="440" as="sourcePoint" />
            <mxPoint x="135" y="440" as="targetPoint" />
          </mxGeometry>
        </mxCell>
        <mxCell id="NNi6yRZVvPSZJpoD0l9T-17" value="QosProtocolWrapper" style="shape=umlLifeline;perimeter=lifelinePerimeter;whiteSpace=wrap;html=1;container=1;collapsible=0;recursiveResize=0;outlineConnect=0;" vertex="1" parent="1">
          <mxGeometry x="690" y="70" width="130" height="760" as="geometry" />
        </mxCell>
        <mxCell id="NNi6yRZVvPSZJpoD0l9T-19" value="" style="html=1;points=[];perimeter=orthogonalPerimeter;" vertex="1" parent="NNi6yRZVvPSZJpoD0l9T-17">
          <mxGeometry x="60" y="420" width="10" height="260" as="geometry" />
        </mxCell>
        <mxCell id="NNi6yRZVvPSZJpoD0l9T-20" value="ProtocolListenerWrapper" style="shape=umlLifeline;perimeter=lifelinePerimeter;whiteSpace=wrap;html=1;container=1;collapsible=0;recursiveResize=0;outlineConnect=0;" vertex="1" parent="1">
          <mxGeometry x="1050" y="70" width="150" height="790" as="geometry" />
        </mxCell>
        <mxCell id="NNi6yRZVvPSZJpoD0l9T-22" value="" style="html=1;points=[];perimeter=orthogonalPerimeter;" vertex="1" parent="NNi6yRZVvPSZJpoD0l9T-20">
          <mxGeometry x="70" y="430" width="10" height="250" as="geometry" />
        </mxCell>
        <mxCell id="NNi6yRZVvPSZJpoD0l9T-25" value="&lt;pre style=&quot;color: rgb(8, 8, 8); font-family: &amp;quot;JetBrains Mono&amp;quot;, monospace; font-size: 9.8pt;&quot;&gt;export&lt;/pre&gt;" style="html=1;verticalAlign=bottom;endArrow=block;rounded=0;entryX=-0.1;entryY=0.084;entryDx=0;entryDy=0;entryPerimeter=0;" edge="1" parent="NNi6yRZVvPSZJpoD0l9T-20" target="NNi6yRZVvPSZJpoD0l9T-24">
          <mxGeometry width="80" relative="1" as="geometry">
            <mxPoint x="80" y="460" as="sourcePoint" />
            <mxPoint x="160" y="460" as="targetPoint" />
          </mxGeometry>
        </mxCell>
        <mxCell id="NNi6yRZVvPSZJpoD0l9T-21" value="ProtocolFilterWrapper" style="shape=umlLifeline;perimeter=lifelinePerimeter;whiteSpace=wrap;html=1;container=1;collapsible=0;recursiveResize=0;outlineConnect=0;" vertex="1" parent="1">
          <mxGeometry x="1350" y="70" width="130" height="790" as="geometry" />
        </mxCell>
        <mxCell id="NNi6yRZVvPSZJpoD0l9T-24" value="" style="html=1;points=[];perimeter=orthogonalPerimeter;" vertex="1" parent="NNi6yRZVvPSZJpoD0l9T-21">
          <mxGeometry x="60" y="440" width="10" height="250" as="geometry" />
        </mxCell>
        <mxCell id="NNi6yRZVvPSZJpoD0l9T-28" value="&lt;pre style=&quot;color: rgb(8, 8, 8); font-family: &amp;quot;JetBrains Mono&amp;quot;, monospace; font-size: 9.8pt;&quot;&gt;export&lt;/pre&gt;" style="html=1;verticalAlign=bottom;endArrow=block;rounded=0;entryX=-0.1;entryY=0.088;entryDx=0;entryDy=0;entryPerimeter=0;" edge="1" parent="NNi6yRZVvPSZJpoD0l9T-21" target="NNi6yRZVvPSZJpoD0l9T-27">
          <mxGeometry width="80" relative="1" as="geometry">
            <mxPoint x="70" y="470" as="sourcePoint" />
            <mxPoint x="150" y="470" as="targetPoint" />
          </mxGeometry>
        </mxCell>
        <mxCell id="NNi6yRZVvPSZJpoD0l9T-23" value="&lt;pre style=&quot;color: rgb(8, 8, 8); font-family: &amp;quot;JetBrains Mono&amp;quot;, monospace; font-size: 9.8pt;&quot;&gt;export&lt;/pre&gt;" style="html=1;verticalAlign=bottom;endArrow=block;rounded=0;entryX=0;entryY=0.082;entryDx=0;entryDy=0;entryPerimeter=0;exitX=1.2;exitY=0.113;exitDx=0;exitDy=0;exitPerimeter=0;" edge="1" parent="1" source="NNi6yRZVvPSZJpoD0l9T-19" target="NNi6yRZVvPSZJpoD0l9T-22">
          <mxGeometry width="80" relative="1" as="geometry">
            <mxPoint x="780" y="521" as="sourcePoint" />
            <mxPoint x="860" y="520" as="targetPoint" />
          </mxGeometry>
        </mxCell>
        <mxCell id="NNi6yRZVvPSZJpoD0l9T-26" value="RegistryProtocol" style="shape=umlLifeline;perimeter=lifelinePerimeter;whiteSpace=wrap;html=1;container=1;collapsible=0;recursiveResize=0;outlineConnect=0;" vertex="1" parent="1">
          <mxGeometry x="1690" y="70" width="100" height="810" as="geometry" />
        </mxCell>
        <mxCell id="NNi6yRZVvPSZJpoD0l9T-27" value="" style="html=1;points=[];perimeter=orthogonalPerimeter;" vertex="1" parent="NNi6yRZVvPSZJpoD0l9T-26">
          <mxGeometry x="45" y="445" width="10" height="285" as="geometry" />
        </mxCell>
      </root>
    </mxGraphModel>
  </diagram>
</mxfile>
